:version 1.10
:name ASF
:units
  mass 1
  length 1
  angle deg
:documentation
  ASF file generated by Kaydara
:root
  axis xyz
  order  tx ty tz rx ry rz
  position 0 0 0
  orientation 0 0 0
:bonedata
  begin
    id 1
    name RightUpLegDummy
    direction -0.718183 -0.695806 0.00816078
    length 4.904
    axis 0 0 0 xyz
  end
  begin
    id 2
    name RightUpLeg
    direction -0.0736652 -0.994202 0.0783343
    length 17.4976
    axis -2.72909 -3.00389 -4.00133 xyz
    dof rx ry rz
  end
  begin
    id 3
    name RightLeg
    direction -0.0389037 -0.994596 -0.0962598
    length 16.5821
    axis 3.95836 -18.5909 -4.46993 xyz
    dof rx ry rz
  end
  begin
    id 4
    name RightFoot
    direction -0.311643 -0.412678 0.855906
    length 3.77069
    axis -1.99483 -18.8351 -3.27644 xyz
    dof rx ry rz
  end
  begin
    id 5
    name RightToes
    direction -0.317852 0.0389852 0.947339
    length 3.85082
    axis -2.00228 -18.1713 -3.25211 xyz
    dof rx ry rz
  end
  begin
    id 6
    name SpineDummy
    direction 8.3039e-015 1 4.44677e-016
    length 4.6813
    axis 0 0 0 xyz
  end
  begin
    id 7
    name Spine
    direction -0.000262373 0.999988 0.00493267
    length 10.1015
    axis -0.00246081 0.00062579 0.0150362 xyz
    dof rx ry rz
  end
  begin
    id 8
    name Spine1
    direction 0 0 0
    length 0
    axis -0.00349562 0.000650293 0.0196666 xyz
    dof rx ry rz
  end
  begin
    id 9
    name HEadDummy
    direction -0.000343232 0.999999 0.00123745
    length 3.43865
    axis -0.00349562 0.000650293 0.0196666 xyz
  end
  begin
    id 10
    name HEad
    direction -0.0461221 0.980933 0.188796
    length 5.12695
    axis -0.00351404 -7.04812 0.0199272 xyz
    dof rx ry rz
  end
  begin
    id 11
    name LeftShoulder1Dummy
    direction 0.998904 -0.0399089 -0.0244534
    length 3.5433
    axis -0.00349562 0.000650293 0.0196666 xyz
  end
  begin
    id 12
    name LeftShoulder1
    direction 0.99951 1.64443e-005 0.0312999
    length 4.05031
    axis -0.00349562 0.000650293 0.0196666 xyz
    dof rx ry rz
  end
  begin
    id 13
    name LeftArm
    direction 0.984791 0.0515299 0.165927
    length 12.9126
    axis -64.823 -10.7743 5.20463 xyz
    dof rx ry rz
  end
  begin
    id 14
    name LeftForeArm
    direction 0.984968 0.0534808 0.16425
    length 10.8596
    axis -30.0462 -7.70601 1.87451 xyz
    dof rx ry rz
  end
  begin
    id 15
    name LeftHand
    direction 0.975871 0.0289682 0.216418
    length 6.62295
    axis -20.1348 -6.98077 1.86072 xyz
    dof rx ry rz
  end
  begin
    id 16
    name RightShoulderDummy
    direction -0.998877 -0.0405946 -0.0244307
    length 3.5433
    axis -0.00349562 0.000650293 0.0196666 xyz
  end
  begin
    id 17
    name RightShoulder
    direction -0.998933 -0.0249743 -0.0388558
    length 4.05031
    axis -0.0205316 -4.02113 1.41395 xyz
    dof rx ry rz
  end
  begin
    id 18
    name RightArm
    direction -0.997559 0.068664 0.0127103
    length 12.9638
    axis -67.3882 1.84188 -6.15987 xyz
    dof rx ry rz
  end
  begin
    id 19
    name RightForeArm
    direction -0.991508 0.0912848 0.0926241
    length 10.8312
    axis -22.1975 3.41087 -4.28711 xyz
    dof rx ry rz
  end
  begin
    id 20
    name RightHand
    direction -0.989262 0.0600788 0.133232
    length 6.57864
    axis -12.2911 2.17515 -4.39675 xyz
    dof rx ry rz
  end
  begin
    id 21
    name LeftUpLegDummy
    direction 0.718183 -0.695806 0.00816078
    length 4.904
    axis 0 0 0 xyz
  end
  begin
    id 22
    name LeftUpLeg
    direction 0.0831398 -0.99469 0.0606531
    length 17.4976
    axis -1.71016 2.29552 4.63832 xyz
    dof rx ry rz
  end
  begin
    id 23
    name LeftLeg
    direction 0.0498442 -0.991778 -0.117862
    length 16.5821
    axis 5.13757 15.5727 5.13348 xyz
    dof rx ry rz
  end
  begin
    id 24
    name LeftFoot
    direction 0.269026 -0.433896 0.85986
    length 3.77069
    axis -0.576502 15.6961 4.10267 xyz
    dof rx ry rz
  end
  begin
    id 25
    name LeftToes
    direction 0.277311 0.0251143 0.960452
    length 3.85048
    axis -0.576502 15.6961 4.10267 xyz
    dof rx ry rz
  end
:hierarchy
  begin
    root RightUpLegDummy SpineDummy LeftUpLegDummy
    RightUpLegDummy RightUpLeg
    RightUpLeg RightLeg
    RightLeg RightFoot
    RightFoot RightToes
    SpineDummy Spine
    Spine Spine1
    Spine1 HEadDummy LeftShoulder1Dummy RightShoulderDummy
    HEadDummy HEad
    LeftShoulder1Dummy LeftShoulder1
    LeftShoulder1 LeftArm
    LeftArm LeftForeArm
    LeftForeArm LeftHand
    RightShoulderDummy RightShoulder
    RightShoulder RightArm
    RightArm RightForeArm
    RightForeArm RightHand
    LeftUpLegDummy LeftUpLeg
    LeftUpLeg LeftLeg
    LeftLeg LeftFoot
    LeftFoot LeftToes
  end

:SAMPLES-PER-SECOND 30
:FULLY-SPECIFIED
:DEGREES
1
root  -5.09613 40.4738 82.1066 178.058 9.43982 -179.848
RightUpLeg  -0.729724 -1.41263 -0.804497
RightLeg  3.50482 -0.375436 -0.328772
RightFoot  -0.361433 -0.196543 1.73138
RightToes  -1.16415e-010 -3.18055e-015 -2.98177e-016
Spine  -2.43318 1.08799 0.43997
Spine1  12.2054 1.1925 0.480051
HEad  -9.55907 0.913013 -0.0713109
LeftShoulder1  -3.88251e-019 9.70628e-020 -3.87848e-018
LeftArm  -24.7715 52.8638 -56.949
LeftForeArm  -5.91242 -9.43736 0.436025
LeftHand  -0.892703 0.0991677 21.1935
RightShoulder  6.85445 10.0549 33.1062
RightArm  0.546276 -36.5916 15.9007
RightForeArm  9.11641 13.2036 -8.06311
RightHand  -1.22212 0.550077 -23.2186
LeftUpLeg  0.0871091 -3.17264 -2.79111
LeftLeg  5.09552 9.08045 4.34647
LeftFoot  -2.96207 0.184484 -2.23193
LeftToes  1.69338e-011 3.79281e-011 -2.20049e-011
2
root  -5.09613 40.4738 82.1066 178.04 9.45288 -179.848
RightUpLeg  -0.719731 -1.39429 -0.795182
RightLeg  3.50486 -0.377846 -0.348775
RightFoot  -0.353252 -0.198561 1.75206
RightToes  -1.16415e-010 -3.18055e-015 -2.98177e-016
Spine  -2.37949 1.08228 0.474339
Spine1  12.2087 1.20691 0.402308
HEad  -9.56881 0.835731 -0.0373734
LeftShoulder1  -3.88251e-019 9.70628e-020 -3.87848e-018
LeftArm  -24.8343 52.7981 -56.9358
LeftForeArm  -5.4305 -9.45737 0.478557
LeftHand  -1.01659 -0.780291 20.4913
RightShoulder  6.86017 10.0617 33.1213
RightArm  0.336838 -36.5734 16.0438
RightForeArm  9.06786 12.9981 -8.05386
RightHand  -1.35592 0.894036 -24.3471
LeftUpLeg  0.113872 -3.15923 -2.79068
LeftLeg  5.07843 9.07953 4.33002
LeftFoot  -2.95078 0.181224 -2.19766
LeftToes  1.69338e-011 3.79281e-011 -2.20049e-011
3
root  -5.09649 40.4738 82.1067 178.01 9.47273 -179.848
RightUpLeg  -0.708154 -1.37628 -0.787128
RightLeg  3.52896 -0.381502 -0.379077
RightFoot  -0.360083 -0.201941 1.78669
RightToes  -1.16415e-010 -3.18055e-015 -2.98177e-016
Spine  -2.28157 1.09408 0.530605
Spine1  12.1998 1.2534 0.276786
HEad  -9.64465 0.620945 -0.0229589
LeftShoulder1  -3.88251e-019 9.70628e-020 -3.87848e-018
LeftArm  -24.9456 52.6448 -56.9445
LeftForeArm  -4.63234 -9.4568 0.559422
LeftHand  -1.18249 -2.07121 19.4894
RightShoulder  6.87702 10.0769 33.1768
RightArm  0.146274 -36.5755 16.1266
RightForeArm  8.90619 12.8254 -8.06334
RightHand  -1.49143 1.15981 -25.6894
LeftUpLeg  0.147465 -3.15157 -2.79153
LeftLeg  5.07862 9.09436 4.32606
LeftFoot  -2.95517 0.180175 -2.18663
LeftToes  1.69338e-011 3.79281e-011 -2.20049e-011
4
root  -5.09815 40.4734 82.1078 177.994 9.47701 -179.848
RightUpLeg  -0.709465 -1.37038 -0.783025
RightLeg  3.55894 -0.385322 -0.395932
RightFoot  -0.375529 -0.203681 1.80451
RightToes  -1.16415e-010 -3.18055e-015 -2.98177e-016
Spine  -2.12577 1.10798 0.576073
Spine1  12.0692 1.29499 0.177238
HEad  -9.70981 0.518991 -0.00566864
LeftShoulder1  -3.88251e-019 9.70628e-020 -3.87848e-018
LeftArm  -24.9599 52.5265 -56.9672
LeftForeArm  -3.98719 -9.4401 0.589573
LeftHand  -1.28563 -2.87783 19.0329
RightShoulder  6.89764 10.0968 33.2416
RightArm  0.219879 -36.5955 16.013
RightForeArm  8.71855 12.8202 -8.03835
RightHand  -1.5422 1.15095 -26.5622
LeftUpLeg  0.141608 -3.16062 -2.79626
LeftLeg  5.12052 9.10901 4.35286
LeftFoot  -2.98011 0.182344 -2.20943
LeftToes  1.69338e-011 3.79281e-011 -2.20049e-011
5
root  -5.1008 40.4716 82.1119 178.003 9.48 -179.848
RightUpLeg  -0.749779 -1.36483 -0.780154
RightLeg  3.60282 -0.385234 -0.411876
RightFoot  -0.387148 -0.203962 1.80739
RightToes  -1.16415e-010 -3.18055e-015 -2.98177e-016
Spine  -1.88017 1.10626 0.642228
Spine1  11.7538 1.32613 0.0463672
HEad  -9.5982 0.61951 0.0678591
LeftShoulder1  -3.88251e-019 9.70628e-020 -3.87848e-018
LeftArm  -24.7683 52.5037 -56.929
LeftForeArm  -3.74209 -9.43274 0.516993
LeftHand  -1.30891 -2.9458 19.2157
RightShoulder  6.91343 10.1148 33.2852
RightArm  0.451923 -36.607 15.8394
RightForeArm  8.67205 12.803 -7.92883
RightHand  -1.67324 1.43575 -27.5792
LeftUpLeg  0.0980917 -3.17234 -2.80149
LeftLeg  5.1765 9.11959 4.38425
LeftFoot  -2.99913 0.183092 -2.2173
LeftToes  1.69338e-011 3.79281e-011 -2.20049e-011
6
root  -5.1049 40.4691 82.1186 178.014 9.52533 -179.853
RightUpLeg  -0.840528 -1.35365 -0.779947
RightLeg  3.71081 -0.344465 -0.454055
RightFoot  -0.42094 -0.205907 1.82732
RightToes  -1.16415e-010 -3.18055e-015 -2.98177e-016
Spine  -1.62572 1.11403 0.75873
Spine1  11.4266 1.38436 -0.159155
HEad  -9.33132 0.681273 0.147895
LeftShoulder1  -3.88251e-019 9.70628e-020 -3.87848e-018
LeftArm  -24.5294 52.4754 -56.8784
LeftForeArm  -3.86712 -9.40156 0.403052
LeftHand  -1.26998 -2.56207 19.5777
RightShoulder  6.90997 10.1167 33.2628
RightArm  0.586254 -36.6165 15.8099
RightForeArm  8.75486 12.665 -7.78778
RightHand  -1.92758 2.12257 -28.8702
LeftUpLeg  0.0613934 -3.16423 -2.80578
LeftLeg  5.22007 9.15233 4.39214
LeftFoot  -3.01105 0.181955 -2.20534
LeftToes  1.69338e-011 3.79281e-011 -2.20049e-011
7
root  -5.10915 40.4648 82.1242 177.998 9.61008 -179.864
RightUpLeg  -0.948996 -1.35327 -0.78727
RightLeg  3.90408 -0.253412 -0.517905
RightFoot  -0.515974 -0.211162 1.88116
RightToes  -1.16415e-010 -3.18055e-015 -2.98177e-016
Spine  -1.44889 1.14323 0.869227
Spine1  11.2683 1.45593 -0.330341
HEad  -9.12682 0.551077 0.134029
LeftShoulder1  -3.88251e-019 9.70628e-020 -3.87848e-018
LeftArm  -24.4689 52.3924 -56.9312
LeftForeArm  -4.17453 -9.34661 0.339488
LeftHand  -1.21252 -2.13352 19.8051
RightShoulder  6.88372 10.1021 33.1569
RightArm  0.541271 -36.6044 15.9518
RightForeArm  8.81109 12.5095 -7.70856
RightHand  -2.04578 2.41706 -29.4752
LeftUpLeg  0.0525766 -3.13754 -2.80861
LeftLeg  5.28172 9.20866 4.39321
LeftFoot  -3.04956 0.183267 -2.21913
LeftToes  1.69338e-011 3.79281e-011 -2.20049e-011
8
root  -5.1122 40.4576 82.1305 177.937 9.66423 -179.883
RightUpLeg  -1.04225 -1.38283 -0.812765
RightLeg  4.17787 -0.159246 -0.593695
RightFoot  -0.677917 -0.218255 1.95384
RightToes  -1.16415e-010 -3.18055e-015 -2.98177e-016
Spine  -1.22259 1.13685 0.90036
Spine1  11.1474 1.4622 -0.384618
HEad  -9.09487 0.417574 0.0388747
LeftShoulder1  -3.88251e-019 9.70628e-020 -3.87848e-018
LeftArm  -24.4829 52.4032 -56.9952
LeftForeArm  -4.43685 -9.40575 0.333791
LeftHand  -1.18738 -1.94364 19.9208
RightShoulder  6.86715 10.1001 33.0743
RightArm  0.43354 -36.4841 16.1154
RightForeArm  8.88355 12.4234 -7.70774
RightHand  -1.88117 1.93173 -28.8847
LeftUpLeg  0.0496134 -3.12205 -2.82159
LeftLeg  5.41565 9.23995 4.42504
LeftFoot  -3.12628 0.186796 -2.25624
LeftToes  1.69338e-011 3.79281e-011 -2.20049e-011
9
root  -5.1145 40.4466 82.1454 177.824 9.66611 -179.932
RightUpLeg  -1.15823 -1.43889 -0.87091
RightLeg  4.58247 -0.0757941 -0.71448
RightFoot  -0.894098 -0.224701 2.03171
RightToes  -1.16415e-010 -3.18055e-015 -2.98177e-016
Spine  -0.749162 1.05422 0.877151
Spine1  10.8406 1.39045 -0.435905
HEad  -9.14828 0.471974 -0.031531
LeftShoulder1  -3.88251e-019 9.70628e-020 -3.87848e-018
LeftArm  -24.3174 52.6017 -56.8738
LeftForeArm  -4.41867 -9.69758 0.35195
LeftHand  -1.23079 -2.1785 19.9739
RightShoulder  6.89473 10.1344 33.1442
RightArm  0.377103 -36.2289 16.1918
RightForeArm  9.15194 12.3913 -7.73402
RightHand  -1.6891 1.40192 -27.9842
LeftUpLeg  0.0402264 -3.13431 -2.86761
LeftLeg  5.62839 9.235 4.48822
LeftFoot  -3.21545 0.186408 -2.25617
LeftToes  1.69338e-011 3.79281e-011 -2.20049e-011
10
root  -5.11752 40.4304 82.1696 177.67 9.71672 179.976
RightUpLeg  -1.36741 -1.50327 -0.962172
RightLeg  5.17367 0.0798832 -0.90792
RightFoot  -1.16355 -0.228219 2.11911
RightToes  -1.16415e-010 -3.18055e-015 -2.98177e-016
Spine  -0.1067 0.977395 0.882402
Spine1  10.4496 1.35337 -0.593837
HEad  -9.21872 0.614472 -0.0536426
LeftShoulder1  -3.88251e-019 9.70628e-020 -3.87848e-018
LeftArm  -24.0666 52.802 -56.6624
LeftForeArm  -3.99213 -10.1073 0.411889
LeftHand  -1.3425 -2.85991 19.9053
RightShoulder  6.93554 10.1751 33.2692
RightArm  0.399178 -35.9944 16.2276
RightForeArm  9.49419 12.4589 -7.7636
RightHand  -1.70315 1.51533 -27.7602
LeftUpLeg  0.0405836 -3.15054 -2.95153
LeftLeg  5.88647 9.27964 4.55305
LeftFoot  -3.31291 0.180556 -2.21601
LeftToes  1.69338e-011 3.79281e-011 -2.20049e-011
11
root  -5.12167 40.4104 82.1925 177.517 9.89601 179.862
RightUpLeg  -1.65685 -1.56497 -1.06421
RightLeg  5.86477 0.362305 -1.12851
RightFoot  -1.46888 -0.230864 2.21093
RightToes  -1.16415e-010 -3.18055e-015 -2.98177e-016
Spine  0.463515 1.01777 0.954648
Spine1  10.2045 1.44936 -0.789777
HEad  -9.31699 0.657268 -0.0926697
LeftShoulder1  -3.88251e-019 9.70628e-020 -3.87848e-018
LeftArm  -24.0121 52.7735 -56.6481
LeftForeArm  -3.31142 -10.4136 0.529931
LeftHand  -1.46732 -3.69025 19.6848
RightShoulder  6.9224 10.1713 33.2087
RightArm  0.471841 -35.9737 16.2874
RightForeArm  9.62865 12.6931 -7.81942
RightHand  -1.82442 1.95515 -27.9743
LeftUpLeg  0.0453888 -3.14273 -3.04631
LeftLeg  6.17611 9.43328 4.61279
LeftFoot  -3.44828 0.176459 -2.20872
LeftToes  1.69338e-011 3.79281e-011 -2.20049e-011
12
root  -5.12495 40.3901 82.2091 177.395 10.1131 179.762
RightUpLeg  -1.93224 -1.62339 -1.15206
RightLeg  6.48022 0.670461 -1.31161
RightFoot  -1.75964 -0.231563 2.28479
RightToes  -1.16415e-010 -3.18055e-015 -2.98177e-016
Spine  0.968312 1.13388 1.1117
Spine1  10.0226 1.63072 -1.00113
HEad  -9.39952 0.587409 -0.138075
LeftShoulder1  -3.88251e-019 9.70628e-020 -3.87848e-018
LeftArm  -24.0569 52.5592 -56.7786
LeftForeArm  -2.76595 -10.6077 0.646698
LeftHand  -1.52367 -4.13197 19.4581
RightShoulder  6.86161 10.1272 32.986
RightArm  0.526272 -36.1233 16.3418
RightForeArm  9.67444 12.9674 -7.90703
RightHand  -1.8875 2.24746 -27.8536
LeftUpLeg  0.0172326 -3.11438 -3.12036
LeftLeg  6.49929 9.6006 4.67924
LeftFoot  -3.61608 0.176997 -2.25546
LeftToes  1.69338e-011 3.79281e-011 -2.20049e-011
13
root  -5.12342 40.371 82.2297 177.298 10.2438 179.674
RightUpLeg  -2.16564 -1.68615 -1.22498
RightLeg  6.99274 0.890779 -1.45799
RightFoot  -2.01788 -0.230905 2.34067
RightToes  -1.16415e-010 -3.18055e-015 -2.98177e-016
Spine  1.60812 1.16576 1.38058
Spine1  9.67875 1.77026 -1.38673
HEad  -9.42774 0.528472 -0.10827
LeftShoulder1  -3.88251e-019 9.70628e-020 -3.87848e-018
LeftArm  -23.8836 52.4015 -56.696
LeftForeArm  -2.65981 -10.9516 0.724771
LeftHand  -1.48319 -3.88965 19.4611
RightShoulder  6.84099 10.1073 32.9209
RightArm  0.510871 -36.1721 16.3619
RightForeArm  9.9511 13.0825 -7.97958
RightHand  -1.90999 2.49796 -27.3242
LeftUpLeg  -0.0607453 -3.06237 -3.16265
LeftLeg  6.83427 9.64851 4.73485
LeftFoot  -3.77055 0.177665 -2.30249
LeftToes  1.69338e-011 3.79281e-011 -2.20049e-011
